<svg width="215" height="61" viewBox="0 0 215 61" fill="none" xmlns="http://www.w3.org/2000/svg">
<path fill-rule="evenodd" clip-rule="evenodd" d="M5.73759 11.1776L39.9893 60.3068H45.2922V0.693185H39.9893V49.3026H39.6415L5.65066 0.693185H0V60.3068H5.38986V11.1776H5.73759ZM69.3184 58.8338C72.5639 60.278 78.0987 61 85.9227 61C93.7466 61 99.2813 60.278 102.527 58.8338C105.772 57.332 107.83 54.6459 108.699 50.7756C109.626 46.8476 110.09 40.0891 110.09 30.5C110.09 20.9109 109.626 14.1813 108.699 10.3111C107.83 6.38304 105.772 3.69698 102.527 2.25284C99.2813 0.750956 93.7466 0 85.9227 0C78.0987 0 72.5639 0.750956 69.3184 2.25284C66.0728 3.69698 63.9864 6.38304 63.0592 10.3111C62.1899 14.1813 61.7552 20.9109 61.7552 30.5C61.7552 40.0891 62.1899 46.8476 63.0592 50.7756C63.9864 54.6459 66.0728 57.332 69.3184 58.8338ZM98.8757 54.5881C96.6154 55.3967 92.2977 55.8011 85.9227 55.8011C79.5474 55.8011 75.2008 55.3967 72.8827 54.5881C70.6224 53.7216 69.1154 51.6999 68.3621 48.5227C67.6667 45.2879 67.3189 39.2802 67.3189 30.5C67.3189 21.7198 67.6667 15.741 68.3621 12.5639C69.1154 9.32906 70.6224 7.30729 72.8827 6.49858C75.2008 5.63211 79.5474 5.19887 85.9227 5.19887C92.2977 5.19887 96.6154 5.63211 98.8757 6.49858C101.194 7.30729 102.701 9.32906 103.396 12.5639C104.15 15.741 104.526 21.7198 104.526 30.5C104.526 39.2802 104.15 45.2879 103.396 48.5227C102.701 51.6999 101.194 53.7216 98.8757 54.5881ZM139.624 6.06534V60.3068H145.274V6.06534H164.747V0.693185H120.151V6.06534H139.624Z" fill="white"/>
<path d="M176.923 60.3068V0.693185H215V5.89205H182.487V55.108H215V60.3068H176.923Z" fill="white"/>
<path d="M205.457 30.0615C205.457 33.9679 202.28 37.1347 198.36 37.1347C194.441 37.1347 191.264 33.9679 191.264 30.0615C191.264 26.155 194.441 22.9882 198.36 22.9882C202.28 22.9882 205.457 26.155 205.457 30.0615Z" fill="white"/>
</svg>
